{"accessors" : [{"bufferView" : 0, "byteOffset" : 0, "componentType" : 5123, "count" : 8238, "type" : "SCALAR", "max" : [8237], "min" : [0]}, {"bufferView" : 1, "byteOffset" : 0, "componentType" : 5126, "count" : 8238, "type" : "VEC3", "max" : [0.7299050092697144, 0.7175530195236206, 0.7418059706687927], "min" : [-0.7299190163612366, -0.688742995262146, -0.7418100237846375], "name" : "POSITION"}, {"bufferView" : 1, "byteOffset" : 12, "componentType" : 5126, "count" : 8238, "type" : "VEC3", "max" : [0.9937995672225952, 1.0000042915344238, 0.9967515468597412], "min" : [-0.9981946349143982, -1.0000044107437134, -0.9967514872550964], "name" : "NORMAL"}, {"bufferView" : 1, "byteOffset" : 24, "componentType" : 5126, "count" : 8238, "type" : "VEC2", "max" : [0.9829230308532715, -0.016584068536758423], "min" : [0.020983219146728516, -0.9767608642578125], "name" : "TEXCOORD_0"}], "asset" : {"generator" : "Aspose.3D 21.10", "version" : "2.0"}, "buffers" : [{"uri" : "data:application/octet-stream;base64,", "byteLength" : 280100}], "bufferViews" : [{"buffer" : 0, "byteOffset" : 0, "byteLength" : 16476, "target" : 34963}, {"buffer" : 0, "byteOffset" : 16480, "byteLength" : 263616, "byteStride" : 32, "target" : 34962}], "cameras" : [{"perspective" : {"aspectRatio" : 1.5, "yfov" : 0.6911112070083618, "zfar" : 10000, "znear" : 10.000000149011612}, "type" : "perspective", "name" : "NodeAttribute"}], "images" : [{"uri" : "D:\\2021project\\0803_\\09_image\\tomoto.jpg"}], "materials" : [{"name" : "", "pbrMetallicRoughness" : {"baseColorFactor" : [0.800000011920929, 0.800000011920929, 0.800000011920929, 1], "baseColorTexture" : {"index" : 0, "texCoord" : 0}, "metallicFactor" : 0, "roughnessFactor" : 0}, "emissiveFactor" : [0, 0, 0], "alphaMode" : "OPAQUE", "doubleSided" : false}], "meshes" : [{"primitives" : [{"attributes" : {"POSITION" : 1, "NORMAL" : 2, "TEXCOORD_0" : 3}, "indices" : 0, "material" : 0, "mode" : 4}], "name" : "Geometry"}], "nodes" : [{"camera" : 0, "matrix" : [-82.14796772716915, 16.99345484410302, -54.43283834926675, 0, 5.3970248508122305, 97.34486836325291, 22.245229870236027, 0, 56.76779926836204, 15.336248101797784, -80.88395968613436, 0, 735.88916015625, 495.8309326171875, 692.5791015625, 1], "name" : "Model"}, {"matrix" : [100, 0, 0, 0, 0, 99.99999999999866, 1.6292067073209108E-05, 0, 0, -1.6292067073209108E-05, 99.99999999999866, 0, 0, 0, 0, 1], "mesh" : 0, "name" : "Model"}], "samplers" : [{"magFilter" : 9729, "minFilter" : 9729, "wrapS" : 10497, "wrapT" : 10497}], "scene" : 0, "scenes" : [{"nodes" : [0, 1]}], "textures" : [{"sampler" : 0, "source" : 0}]}